<mxfile host="app.diagrams.net" agent="Mozilla/5.0 (Windows NT 10.0; Win64; x64; rv:143.0) Gecko/20100101 Firefox/143.0" version="28.2.5">
  <diagram name="Страница — 1" id="jsrc5Oti3_NPr5SlPeb7">
    <mxGraphModel dx="984" dy="538" grid="1" gridSize="10" guides="1" tooltips="1" connect="1" arrows="1" fold="1" page="1" pageScale="1" pageWidth="827" pageHeight="1169" math="0" shadow="0">
      <root>
        <mxCell id="0" />
        <mxCell id="1" parent="0" />
        <mxCell id="ck2Xf5D3P0bVl58kspCC-1" value="&lt;div&gt;Program&lt;/div&gt;" style="whiteSpace=wrap;html=1;aspect=fixed;" vertex="1" parent="1">
          <mxGeometry x="370" y="540" width="80" height="80" as="geometry" />
        </mxCell>
        <mxCell id="ck2Xf5D3P0bVl58kspCC-3" style="edgeStyle=orthogonalEdgeStyle;rounded=0;orthogonalLoop=1;jettySize=auto;html=1;entryX=1;entryY=0.5;entryDx=0;entryDy=0;" edge="1" parent="1" source="ck2Xf5D3P0bVl58kspCC-2" target="ck2Xf5D3P0bVl58kspCC-1">
          <mxGeometry relative="1" as="geometry" />
        </mxCell>
        <mxCell id="ck2Xf5D3P0bVl58kspCC-4" value="Загрузка&amp;nbsp;&lt;br&gt;переменных&lt;br&gt;&lt;div&gt;окружения&lt;/div&gt;" style="edgeLabel;html=1;align=center;verticalAlign=middle;resizable=0;points=[];" vertex="1" connectable="0" parent="ck2Xf5D3P0bVl58kspCC-3">
          <mxGeometry x="-0.0057" y="-2" relative="1" as="geometry">
            <mxPoint as="offset" />
          </mxGeometry>
        </mxCell>
        <mxCell id="ck2Xf5D3P0bVl58kspCC-2" value="&lt;div&gt;EnvConfig&lt;/div&gt;" style="whiteSpace=wrap;html=1;aspect=fixed;" vertex="1" parent="1">
          <mxGeometry x="600" y="540" width="80" height="80" as="geometry" />
        </mxCell>
        <mxCell id="ck2Xf5D3P0bVl58kspCC-8" style="edgeStyle=orthogonalEdgeStyle;rounded=0;orthogonalLoop=1;jettySize=auto;html=1;entryX=0.5;entryY=0;entryDx=0;entryDy=0;exitX=0.5;exitY=1;exitDx=0;exitDy=0;" edge="1" parent="1">
          <mxGeometry relative="1" as="geometry">
            <mxPoint x="270" y="370" as="sourcePoint" />
            <mxPoint x="410" y="540" as="targetPoint" />
            <Array as="points">
              <mxPoint x="270" y="500" />
              <mxPoint x="410" y="500" />
            </Array>
          </mxGeometry>
        </mxCell>
        <mxCell id="ck2Xf5D3P0bVl58kspCC-9" value="&lt;div&gt;Отправка&amp;nbsp;&lt;/div&gt;&lt;div&gt;изображения&amp;nbsp;&lt;/div&gt;в tg канал" style="edgeLabel;html=1;align=center;verticalAlign=middle;resizable=0;points=[];" vertex="1" connectable="0" parent="ck2Xf5D3P0bVl58kspCC-8">
          <mxGeometry x="-0.0452" y="1" relative="1" as="geometry">
            <mxPoint x="-23" y="-59" as="offset" />
          </mxGeometry>
        </mxCell>
        <mxCell id="ck2Xf5D3P0bVl58kspCC-7" value="&lt;div&gt;TelegramBot&lt;/div&gt;" style="whiteSpace=wrap;html=1;aspect=fixed;" vertex="1" parent="1">
          <mxGeometry x="230" y="290" width="80" height="80" as="geometry" />
        </mxCell>
        <mxCell id="ck2Xf5D3P0bVl58kspCC-10" value="&lt;div&gt;Pinterest&lt;br&gt;Image&lt;br&gt;Scrapper&lt;/div&gt;" style="whiteSpace=wrap;html=1;aspect=fixed;" vertex="1" parent="1">
          <mxGeometry x="370" y="120" width="80" height="80" as="geometry" />
        </mxCell>
        <mxCell id="ck2Xf5D3P0bVl58kspCC-14" style="edgeStyle=orthogonalEdgeStyle;rounded=0;orthogonalLoop=1;jettySize=auto;html=1;" edge="1" parent="1" source="ck2Xf5D3P0bVl58kspCC-13" target="ck2Xf5D3P0bVl58kspCC-1">
          <mxGeometry relative="1" as="geometry">
            <Array as="points">
              <mxPoint x="560" y="500" />
              <mxPoint x="410" y="500" />
            </Array>
          </mxGeometry>
        </mxCell>
        <mxCell id="ck2Xf5D3P0bVl58kspCC-15" value="&lt;div&gt;Установка таймера&lt;/div&gt;&lt;div&gt;для постоянной&amp;nbsp;&lt;/div&gt;&lt;div&gt;отправки изображений&lt;/div&gt;" style="edgeLabel;html=1;align=center;verticalAlign=middle;resizable=0;points=[];" vertex="1" connectable="0" parent="ck2Xf5D3P0bVl58kspCC-14">
          <mxGeometry x="-0.5351" y="2" relative="1" as="geometry">
            <mxPoint y="-4" as="offset" />
          </mxGeometry>
        </mxCell>
        <mxCell id="ck2Xf5D3P0bVl58kspCC-13" value="BotScheduler" style="whiteSpace=wrap;html=1;aspect=fixed;" vertex="1" parent="1">
          <mxGeometry x="520" y="290" width="80" height="80" as="geometry" />
        </mxCell>
        <mxCell id="ck2Xf5D3P0bVl58kspCC-17" style="edgeStyle=orthogonalEdgeStyle;rounded=0;orthogonalLoop=1;jettySize=auto;html=1;entryX=0;entryY=0.5;entryDx=0;entryDy=0;" edge="1" parent="1" source="ck2Xf5D3P0bVl58kspCC-16" target="ck2Xf5D3P0bVl58kspCC-10">
          <mxGeometry relative="1" as="geometry">
            <Array as="points">
              <mxPoint x="230" y="160" />
              <mxPoint x="230" y="160" />
            </Array>
          </mxGeometry>
        </mxCell>
        <mxCell id="ck2Xf5D3P0bVl58kspCC-18" value="&lt;div&gt;Парсинг&amp;nbsp;&lt;/div&gt;&lt;div&gt;HTML&lt;/div&gt;&lt;div&gt;документа&lt;/div&gt;" style="edgeLabel;html=1;align=center;verticalAlign=middle;resizable=0;points=[];" vertex="1" connectable="0" parent="ck2Xf5D3P0bVl58kspCC-17">
          <mxGeometry x="0.24" relative="1" as="geometry">
            <mxPoint x="-17" as="offset" />
          </mxGeometry>
        </mxCell>
        <mxCell id="ck2Xf5D3P0bVl58kspCC-16" value="&lt;div&gt;JsonParser&lt;/div&gt;" style="whiteSpace=wrap;html=1;aspect=fixed;" vertex="1" parent="1">
          <mxGeometry x="150" y="120" width="80" height="80" as="geometry" />
        </mxCell>
        <mxCell id="ck2Xf5D3P0bVl58kspCC-21" style="edgeStyle=orthogonalEdgeStyle;rounded=0;orthogonalLoop=1;jettySize=auto;html=1;entryX=0.5;entryY=0;entryDx=0;entryDy=0;exitX=0.5;exitY=1;exitDx=0;exitDy=0;" edge="1" parent="1" source="ck2Xf5D3P0bVl58kspCC-19" target="ck2Xf5D3P0bVl58kspCC-1">
          <mxGeometry relative="1" as="geometry">
            <Array as="points">
              <mxPoint x="410" y="340" />
              <mxPoint x="410" y="340" />
            </Array>
          </mxGeometry>
        </mxCell>
        <mxCell id="ck2Xf5D3P0bVl58kspCC-22" value="&lt;div&gt;Получение&amp;nbsp;&lt;/div&gt;&lt;div&gt;случайного&amp;nbsp;&lt;/div&gt;&lt;div&gt;url изображения&lt;/div&gt;" style="edgeLabel;html=1;align=center;verticalAlign=middle;resizable=0;points=[];" vertex="1" connectable="0" parent="ck2Xf5D3P0bVl58kspCC-21">
          <mxGeometry x="-0.2598" y="1" relative="1" as="geometry">
            <mxPoint x="-1" y="45" as="offset" />
          </mxGeometry>
        </mxCell>
        <mxCell id="ck2Xf5D3P0bVl58kspCC-19" value="CacheService" style="whiteSpace=wrap;html=1;aspect=fixed;" vertex="1" parent="1">
          <mxGeometry x="370" y="290" width="80" height="80" as="geometry" />
        </mxCell>
        <mxCell id="ck2Xf5D3P0bVl58kspCC-20" style="edgeStyle=orthogonalEdgeStyle;rounded=0;orthogonalLoop=1;jettySize=auto;html=1;entryX=0.5;entryY=0;entryDx=0;entryDy=0;" edge="1" parent="1" source="ck2Xf5D3P0bVl58kspCC-10" target="ck2Xf5D3P0bVl58kspCC-19">
          <mxGeometry relative="1" as="geometry" />
        </mxCell>
        <mxCell id="ck2Xf5D3P0bVl58kspCC-24" value="&lt;div&gt;Загрузка всех&amp;nbsp;&lt;/div&gt;&lt;div&gt;url изображений&lt;/div&gt;" style="edgeLabel;html=1;align=center;verticalAlign=middle;resizable=0;points=[];" vertex="1" connectable="0" parent="ck2Xf5D3P0bVl58kspCC-20">
          <mxGeometry x="0.032" y="1" relative="1" as="geometry">
            <mxPoint x="-1" y="-7" as="offset" />
          </mxGeometry>
        </mxCell>
      </root>
    </mxGraphModel>
  </diagram>
</mxfile>
